<svg width="6730" height="6730" viewBox="0 0 6730 6730" fill="none" xmlns="http://www.w3.org/2000/svg">
<defs>
<clipPath id="clip0_vue">
<rect width="6730" height="6730" fill="white"/>
</clipPath>
<linearGradient id="vueGradient" x1="2891.66" y1="2941.41" x2="6215.2" y2="5729.2" gradientUnits="userSpaceOnUse">
<stop offset="0%" stop-color="#41B883"/>
<stop offset="100%" stop-color="#35495E"/>
</linearGradient>
</defs>
<g clip-path="url(#clip0_vue)">
<path d="M420.875 841.875L3365 5888.125L6309.125 841.875H5147.9375L3365 3891.5625L1578.4375 841.875H420.875Z" fill="#41B883"/>
<path d="M1578.4375 841.875L3365 3891.5625L5147.9375 841.875H4105.6875L3378.64 2106.39L2624.375 841.875H1578.4375Z" fill="#35495E"/>

<g transform="rotate(15 4500 4000)">
<path d="M2891.66 3086.18C2880.7 3071.43 2874.43 3053.74 2873.66 3035.39C2872.89 3017.03 2877.66 2998.87 2887.34 2983.27C2897.02 2967.66 2911.18 2955.32 2927.96 2947.86C2944.74 2940.39 2963.38 2938.15 2981.46 2941.41L6138.36 3436.95C6157.56 3439.98 6175.32 3448.99 6189.11 3462.68C6202.91 3476.38 6212.04 3494.07 6215.2 3513.25C6218.37 3532.43 6215.42 3552.12 6206.77 3569.52C6198.11 3586.93 6184.2 3601.17 6166.99 3610.22L5130.42 4153.4C5071.84 4184.03 5022.53 4229.8 4987.63 4285.94C4952.72 4342.08 4933.49 4406.54 4931.94 4472.63L4906.09 5642.93C4905.63 5662.36 4899.06 5681.15 4887.31 5696.64C4875.56 5712.13 4859.23 5723.52 4840.64 5729.2C4822.05 5734.88 4802.15 5734.56 4783.75 5728.29C4765.35 5722.02 4749.39 5710.11 4738.15 5694.26L2891.66 3086.18Z" stroke="url(#vueGradient)" stroke-width="311.409" stroke-linecap="round" stroke-linejoin="round"/>

<path d="M1619.5 3965L1310.5 2948L2218 2780L1619.5 3965Z" fill="#41B883" fill-opacity="0.25"/>
</g>
</g>
</svg>